<svg width="16" height="16" viewBox="0 0 16 16" fill="none" xmlns="http://www.w3.org/2000/svg">
<path d="M2.625 4.5H13.375" stroke="#AEAEB5" stroke-linecap="round" stroke-linejoin="round"/>
<path d="M2.625 7.5H13.375" stroke="#AEAEB5" stroke-linecap="round" stroke-linejoin="round"/>
<path d="M13.375 12H2.625V4C2.625 3.60218 2.78304 3.22064 3.06434 2.93934C3.34564 2.65804 3.72718 2.5 4.125 2.5H11.875C12.2728 2.5 12.6544 2.65804 12.9357 2.93934C13.217 3.22064 13.375 3.60218 13.375 4V12Z" stroke="#AEAEB5" stroke-linecap="round" stroke-linejoin="round"/>
<path d="M13.375 12V13.5C13.375 13.6326 13.3223 13.7598 13.2286 13.8536C13.1348 13.9473 13.0076 14 12.875 14H11.375C11.2424 14 11.1152 13.9473 11.0214 13.8536C10.9277 13.7598 10.875 13.6326 10.875 13.5V12" stroke="#AEAEB5" stroke-linecap="round" stroke-linejoin="round"/>
<path d="M5.125 12V13.5C5.125 13.6326 5.07232 13.7598 4.97855 13.8536C4.88479 13.9473 4.75761 14 4.625 14H3.125C2.99239 14 2.86521 13.9473 2.77145 13.8536C2.67768 13.7598 2.625 13.6326 2.625 13.5V12" stroke="#AEAEB5" stroke-linecap="round" stroke-linejoin="round"/>
<path d="M5.25 10.5C5.66421 10.5 6 10.1642 6 9.75C6 9.33579 5.66421 9 5.25 9C4.83579 9 4.5 9.33579 4.5 9.75C4.5 10.1642 4.83579 10.5 5.25 10.5Z" fill="#AEAEB5"/>
<path d="M10.75 10.5C11.1642 10.5 11.5 10.1642 11.5 9.75C11.5 9.33579 11.1642 9 10.75 9C10.3358 9 10 9.33579 10 9.75C10 10.1642 10.3358 10.5 10.75 10.5Z" fill="#AEAEB5"/>
</svg>
