<svg width="16" height="16" viewBox="0 0 16 16" fill="none" xmlns="http://www.w3.org/2000/svg">
<path d="M2.8393 11.0622C2.09384 9.80558 1.83277 8.32 2.10512 6.88447C2.37747 5.44894 3.1645 4.16221 4.31843 3.2659C5.47235 2.36958 6.91379 1.92534 8.37208 2.0166C9.83036 2.10785 11.2052 2.72833 12.2384 3.7615C13.2715 4.79468 13.892 6.16949 13.9833 7.62777C14.0745 9.08606 13.6303 10.5275 12.734 11.6814C11.8377 12.8354 10.551 13.6224 9.11543 13.8947C7.67991 14.1671 6.19433 13.906 4.93766 13.1606L4.93767 13.1605L2.86539 13.7526C2.77965 13.7771 2.68892 13.7782 2.6026 13.7559C2.51629 13.7335 2.43752 13.6885 2.37447 13.6254C2.31142 13.5624 2.26637 13.4836 2.24401 13.3973C2.22164 13.311 2.22276 13.2202 2.24726 13.1345L2.83934 11.0622L2.8393 11.0622Z" stroke="#AEAEB5" stroke-linecap="round" stroke-linejoin="round"/>
</svg>
