<svg width="24" height="24" viewBox="0 0 24 24" fill="none" xmlns="http://www.w3.org/2000/svg">
<path d="M4.5 3.75L19.5 20.25" stroke="#AEAEB5" stroke-linecap="round" stroke-linejoin="round"/>
<path d="M18.1776 18.7956C17.1831 19.261 16.0981 19.5015 15 19.5H6.75002C6.00549 19.4993 5.26963 19.3402 4.59129 19.0333C3.91294 18.7265 3.30762 18.2788 2.8155 17.7201C2.32338 17.1614 1.95573 16.5045 1.73694 15.7928C1.51814 15.0812 1.45322 14.3311 1.54647 13.5924C1.63972 12.8538 1.88902 12.1434 2.27781 11.5084C2.66661 10.8735 3.186 10.3285 3.80153 9.90963C4.41706 9.49077 5.11464 9.20762 5.84797 9.07897C6.5813 8.95032 7.3336 8.97912 8.05495 9.16345" stroke="#AEAEB5" stroke-linecap="round" stroke-linejoin="round"/>
<path d="M10.5593 5.95521C12.0536 4.85754 13.9014 4.35222 15.7463 4.53678C17.5912 4.72133 19.3023 5.58267 20.5495 6.95458C21.7967 8.32649 22.4915 10.1117 22.5 11.9658C22.5084 13.8199 21.8298 15.6113 20.5951 16.9945" stroke="#AEAEB5" stroke-linecap="round" stroke-linejoin="round"/>
<path d="M7.50001 12C7.49789 10.6604 7.85629 9.34484 8.53763 8.19141" stroke="#AEAEB5" stroke-linecap="round" stroke-linejoin="round"/>
</svg>
