<svg width="31" height="32" viewBox="0 0 31 32" fill="none" xmlns="http://www.w3.org/2000/svg">
<path d="M15.5 17.7231C16.3025 17.7231 16.9531 17.0726 16.9531 16.27C16.9531 15.4675 16.3025 14.8169 15.5 14.8169C14.6975 14.8169 14.0469 15.4675 14.0469 16.27C14.0469 17.0726 14.6975 17.7231 15.5 17.7231Z" fill="#AEAEB5"/>
<path d="M7.75 17.7231C8.55254 17.7231 9.20313 17.0726 9.20313 16.27C9.20313 15.4675 8.55254 14.8169 7.75 14.8169C6.94746 14.8169 6.29688 15.4675 6.29688 16.27C6.29688 17.0726 6.94746 17.7231 7.75 17.7231Z" fill="#AEAEB5"/>
<path d="M23.25 17.7231C24.0525 17.7231 24.7031 17.0726 24.7031 16.27C24.7031 15.4675 24.0525 14.8169 23.25 14.8169C22.4475 14.8169 21.7969 15.4675 21.7969 16.27C21.7969 17.0726 22.4475 17.7231 23.25 17.7231Z" fill="#AEAEB5"/>
</svg>
