<svg width="196" height="164" viewBox="0 0 196 164" fill="none" xmlns="http://www.w3.org/2000/svg">
<g clip-path="url(#clip0_67_12676)">
<path d="M127.983 163.982C90.4935 163.982 60.1024 133.56 60.1024 96.0335C60.1024 58.5067 90.4935 28.0852 127.983 28.0852C165.472 28.0852 195.863 58.5067 195.863 96.0335C195.863 133.56 165.472 163.982 127.983 163.982Z" fill="#FBECF0"/>
<path d="M160.34 51.0833L149.485 85.6299H103.651V84.2153H147.876L157.928 51.0833H160.34Z" fill="#28192D"/>
<path d="M157.928 51.0833H133.403L120.662 84.2153L148.327 84.0784L158.708 51.0833" fill="white"/>
<path d="M157.928 51.0833H133.403L120.662 84.2153L148.327 84.0784L158.708 51.0833" stroke="#28192D" stroke-width="0.159018" stroke-linecap="round" stroke-linejoin="round"/>
<path d="M149.485 85.6301L170.994 148.862H169.788L147.097 85.6301H149.485Z" fill="#28192D"/>
<path d="M120.465 85.6301L98.9549 148.862H100.161L122.853 85.6301H120.465Z" fill="#28192D"/>
<path d="M103.876 85.6301L82.3662 148.862H83.5723L106.264 85.6301H103.876Z" fill="#28192D"/>
<path d="M155.666 106.841H96.5145" stroke="#28192D" stroke-width="0.397546" stroke-linecap="round" stroke-linejoin="round"/>
<path d="M157.377 111.777H96.5144" stroke="#28192D" stroke-width="0.397546" stroke-linecap="round" stroke-linejoin="round"/>
<path d="M122.853 84.2155V85.6301H103.45V83.7627L122.853 84.2155Z" fill="white" stroke="#28192D" stroke-width="0.159018" stroke-linecap="round" stroke-linejoin="round"/>
<path d="M103.036 114.299L103.337 114.701L110.675 127.982L102.433 130.397L91.9792 117.317" fill="white"/>
<path d="M103.036 114.299L103.337 114.701L110.675 127.982L102.433 130.397L91.9792 117.317" stroke="#28192D" stroke-width="0.159018" stroke-linecap="round" stroke-linejoin="round"/>
<path d="M52.9923 78.4802L37.6681 84.8169L27.6631 93.7735L32.93 97.2165L48.9718 88.7428L52.9923 78.4802Z" fill="white" stroke="#28192D" stroke-width="0.159018" stroke-linecap="round" stroke-linejoin="round"/>
<path d="M116.919 84.316L86.7647 83.3099L105.661 115.305C105.661 115.305 102.244 118.122 98.6252 120.134C96.3885 121.357 93.9259 122.111 91.3883 122.348C91.3883 122.348 74.9042 101.42 70.0796 92.3651C65.255 83.3099 65.255 79.8891 66.2601 73.2486C67.2652 66.6081 88.976 66.0044 88.976 66.0044L100.233 70.0289L110.285 74.2547L116.919 84.316Z" fill="#F6D4A0" stroke="#28192D" stroke-width="0.198773" stroke-miterlimit="10"/>
<path d="M95.6138 74.7637L81.5862 75.5505L78.5648 74.7637L103.114 117.245" stroke="white" stroke-width="0.159018" stroke-linecap="round" stroke-linejoin="round"/>
<path d="M92.1944 28.6245C92.1944 28.6245 89.6635 30.3027 87.3698 30.2343C85.0761 30.1659 83.7513 29.5823 83.7513 29.5823C83.7513 29.5823 83.7513 28.3508 86.0028 26.091C88.2543 23.8312 89.9731 22.0484 89.9731 22.0484L91.9069 21.7405L93.3945 26.2278" fill="#28192D"/>
<path d="M94.3212 26.8919L90.95 19.698C90.9112 17.9691 90.5491 16.2628 89.8825 14.6674C88.7729 12.0031 87.4541 8.55811 86.5656 7.44734C85.6771 6.33657 87.5707 13.6854 87.5707 13.6854C87.5707 13.6854 87.42 13.5807 84.7564 14.6915C84.5413 14.7821 84.4207 15.1302 84.3543 15.5548C84.2026 16.6698 84.4839 17.8005 85.1403 18.714C85.4841 19.197 85.868 19.7363 86.1595 20.1226C86.8249 21.01 88.7729 22.1349 88.7729 22.1349L91.4324 31.995L94.3212 26.8919Z" fill="white" stroke="#28192D" stroke-width="0.159018" stroke-linecap="round" stroke-linejoin="round"/>
<path d="M90.7853 17.9154C90.7853 17.9154 90.7672 15.561 90.9863 14.2289C91.2054 12.8968 91.4808 12.1623 91.2074 12.0154C90.9823 11.8866 89.9772 12.0878 89.4324 14.2289C89.4029 14.397 89.3887 14.5674 89.3902 14.738C89.3902 14.738 87.9669 15.5007 88.1679 16.9092" fill="white"/>
<path d="M90.7853 17.9154C90.7853 17.9154 90.7672 15.561 90.9863 14.2289C91.2054 12.8968 91.4808 12.1623 91.2074 12.0154C90.9823 11.8866 89.9772 12.0878 89.4324 14.2289C89.4029 14.397 89.3887 14.5674 89.3902 14.738C89.3902 14.738 87.9669 15.5007 88.1679 16.9092" stroke="#28192D" stroke-width="0.159018" stroke-linecap="round" stroke-linejoin="round"/>
<path d="M85.4902 15.1342C85.4902 15.1342 84.4107 14.3192 83.8498 14.287C83.289 14.2548 83.1683 16.3154 83.5 17.0861C83.8317 17.8568 84.0287 17.6797 84.2599 16.9412C84.3975 16.4544 84.4271 15.9434 84.3463 15.444" fill="white"/>
<path d="M85.4902 15.1342C85.4902 15.1342 84.4107 14.3192 83.8498 14.287C83.289 14.2548 83.1683 16.3154 83.5 17.0861C83.8317 17.8568 84.0287 17.6797 84.2599 16.9412C84.3975 16.4544 84.4271 15.9434 84.3463 15.444" stroke="#28192D" stroke-width="0.159018" stroke-linecap="round" stroke-linejoin="round"/>
<path d="M86.3888 14.3028C86.3888 14.3028 85.1103 13.3389 84.4449 13.2967C83.7795 13.2544 83.6408 15.6973 84.0308 16.6089C84.4208 17.5204 84.658 17.3132 84.9314 16.4398C85.093 15.8626 85.128 15.2571 85.0339 14.665" fill="white"/>
<path d="M86.3888 14.3028C86.3888 14.3028 85.1103 13.3389 84.4449 13.2967C83.7795 13.2544 83.6408 15.6973 84.0308 16.6089C84.4208 17.5204 84.658 17.3132 84.9314 16.4398C85.093 15.8626 85.128 15.2571 85.0339 14.665" stroke="#28192D" stroke-width="0.159018" stroke-linecap="round" stroke-linejoin="round"/>
<path d="M87.2169 14.0051C87.2169 14.0051 85.8861 13.1177 85.2187 13.1177C84.5513 13.1177 84.5533 15.5606 84.9976 16.45C85.4419 17.3394 85.663 17.1161 85.8861 16.2266C86.0146 15.6413 86.0146 15.0351 85.8861 14.4498" fill="white"/>
<path d="M87.2169 14.0051C87.2169 14.0051 85.8861 13.1177 85.2187 13.1177C84.5513 13.1177 84.5533 15.5606 84.9976 16.45C85.4419 17.3394 85.663 17.1161 85.8861 16.2266C86.0146 15.6413 86.0146 15.0351 85.8861 14.4498" stroke="#28192D" stroke-width="0.159018" stroke-linecap="round" stroke-linejoin="round"/>
<path d="M87.7699 13.8907C87.7699 13.8907 86.7648 12.8845 86.1074 12.8845C85.4501 12.8845 85.442 15.3294 85.8863 16.2168C86.3306 17.1043 86.5517 16.8829 86.7728 15.9955C86.9024 15.4103 86.9024 14.8038 86.7728 14.2187" fill="white"/>
<path d="M87.7699 13.8907C87.7699 13.8907 86.7648 12.8845 86.1074 12.8845C85.4501 12.8845 85.442 15.3294 85.8863 16.2168C86.3306 17.1043 86.5517 16.8829 86.7728 15.9955C86.9024 15.4103 86.9024 14.8038 86.7728 14.2187" stroke="#28192D" stroke-width="0.159018" stroke-linecap="round" stroke-linejoin="round"/>
<path d="M135.614 69.6262V84.3157H116.918C116.918 84.3157 95.9957 74.7293 84.9413 70.2057C80.0825 68.2176 76.5123 68.4188 76.5123 68.4188L52.0314 94.8238C52.0314 94.8238 46.1574 91.3587 41.7349 88.139C37.3123 84.9194 37.3123 84.3157 37.3123 84.3157C37.3123 84.3157 62.6415 61.1746 66.26 57.7538C69.8785 54.3329 87.5687 57.1501 108.073 60.7722C128.578 64.3943 136.418 69.4249 136.418 69.4249L135.614 69.6262Z" fill="#F6D4A0" stroke="#28192D" stroke-width="0.198773" stroke-miterlimit="10"/>
<path d="M129.864 72.9931C129.864 72.9931 121.484 73.0897 111.117 69.699C100.75 66.3083 78.2491 61.8894 75.487 61.7868C72.7249 61.6841 70.6724 65.8958 68.825 69.0812C66.9776 72.2667 49.3255 92.3712 49.3255 92.3712" stroke="white" stroke-width="0.159018" stroke-linecap="round" stroke-linejoin="round"/>
<path d="M123.552 33.2043L122.881 32.5865C122.414 32.1581 121.8 31.9264 121.167 31.9395C120.534 31.9526 119.93 32.2096 119.481 32.657C116.247 35.8766 109.3 42.662 108.073 42.662C106.465 42.662 92.1259 21.7344 92.1259 21.7344C92.1259 21.7344 90.7851 23.143 88.3728 27.1675C85.9604 31.192 83.7492 29.5822 83.7492 29.5822C83.7492 29.5822 101.982 54.6913 104.857 55.8041C109.883 57.754 122.949 46.2841 122.949 46.2841L123.552 33.2043Z" fill="white" stroke="#28192D" stroke-width="0.159018" stroke-linecap="round" stroke-linejoin="round"/>
<path d="M121.528 63.7546C121.528 63.7546 125.161 64.5957 130.186 72.0411C135.212 79.4865 135.212 84.316 135.212 84.316C135.212 84.316 141.243 81.2976 141.444 73.0473C141.645 64.797 140.037 62.7847 139.836 56.1442C139.635 49.5037 139.635 42.0583 139.635 37.8325C139.635 33.6068 130.99 27.7712 125.965 28.9785C120.939 30.1859 119.773 32.7294 119.773 32.7294C119.773 32.7294 116.316 39.4424 116.316 43.4669C116.316 47.4914 120.135 48.9 120.135 48.9L121.528 63.7546Z" fill="white" stroke="#28192D" stroke-width="0.159018" stroke-linecap="round" stroke-linejoin="round"/>
<path d="M122.374 61.0602C122.374 61.0602 120.931 62.5795 120.231 62.4527C119.532 62.3259 119.484 61.0783 119.757 59.382C119.885 58.4688 120.132 57.5765 120.493 56.7278L123.452 57.8768L122.734 59.708" fill="#28192D"/>
<path opacity="0.91" d="M58.8423 21.1307C53.069 21.1307 48.3889 16.4459 48.3889 10.6669C48.3889 4.88793 53.069 0.203125 58.8423 0.203125C64.6155 0.203125 69.2956 4.88793 69.2956 10.6669C69.2956 16.4459 64.6155 21.1307 58.8423 21.1307Z" fill="#FBECF0"/>
<path d="M58.0381 21.1307C52.2649 21.1307 47.5848 16.4459 47.5848 10.6669C47.5848 4.88793 52.2649 0.203125 58.0381 0.203125C63.8113 0.203125 68.4915 4.88793 68.4915 10.6669C68.4915 16.4459 63.8113 21.1307 58.0381 21.1307Z" stroke="#28192D" stroke-width="0.159018" stroke-linecap="round" stroke-linejoin="round"/>
<path d="M54.2284 10.8238C55.4687 11.7319 56.6343 12.7379 57.7142 13.8321C57.9313 13.9991 58.3394 13.9609 58.454 13.7013C58.4668 13.6733 58.4775 13.6444 58.4861 13.6148L58.5364 13.5424C61.4613 9.44136 65.6587 5.57981 70.5758 4.15311C71.1352 3.99471 71.7067 3.88298 72.2845 3.81908C72.8646 3.74537 73.4507 3.73188 74.0335 3.77883C74.0596 3.78088 74.0839 3.79287 74.1015 3.81233C74.1191 3.83179 74.1285 3.85725 74.1279 3.88347C74.1268 3.90394 74.1195 3.92359 74.1069 3.93977C74.0943 3.95595 74.0771 3.9679 74.0576 3.97402C73.756 4.07061 73.1791 4.22556 72.8997 4.32617C72.2695 4.56021 71.6528 4.82893 71.0522 5.13108C69.1164 6.09093 67.3675 7.37878 65.7211 8.76926C64.0917 10.1891 62.5478 11.7043 61.0975 13.3069C60.5125 13.8925 60.0642 14.6129 59.4088 15.118C58.9725 15.4046 58.4424 15.5114 57.9292 15.4162C57.4161 15.3209 56.9595 15.031 56.6548 14.6069L56.4176 14.2748C56.104 13.8482 54.4073 11.4355 54.0696 10.9506C54.0539 10.9289 54.0474 10.902 54.0515 10.8755C54.0557 10.8491 54.0701 10.8254 54.0917 10.8097C54.1133 10.794 54.1403 10.7874 54.1667 10.7916C54.193 10.7957 54.2167 10.8102 54.2324 10.8318L54.2284 10.8238Z" fill="#28192D"/>
<path d="M139.114 35.8967C139.114 35.8967 148.681 50.5098 149.284 56.5466C149.887 62.5834 148.078 65.4006 137.624 63.5896C127.171 61.7785 120.231 62.4526 120.231 62.4526L122.346 55.1381C122.346 55.1381 137.423 54.7356 137.825 54.7356C138.227 54.7356 132.196 41.8571 131.256 39.9132" fill="white"/>
<path d="M139.114 35.8967C139.114 35.8967 148.681 50.5098 149.284 56.5466C149.887 62.5834 148.078 65.4006 137.624 63.5896C127.171 61.7785 120.231 62.4526 120.231 62.4526L122.346 55.1381C122.346 55.1381 137.423 54.7356 137.825 54.7356C138.227 54.7356 132.196 41.8571 131.256 39.9132" stroke="#28192D" stroke-width="0.159018" stroke-linecap="round" stroke-linejoin="round"/>
<path d="M70.3208 57.734H100.605C101.968 57.734 102.905 56.251 102.282 55.0758L90.7711 33.3312C90.6288 33.0664 90.4169 32.8456 90.1582 32.6928C89.8995 32.5399 89.604 32.4608 89.3037 32.464H59.0191C57.6562 32.464 56.7194 33.945 57.3426 35.1202L68.8553 56.8668C68.9969 57.1317 69.2085 57.3527 69.4669 57.5056C69.7253 57.6585 70.0206 57.7375 70.3208 57.734Z" fill="white" stroke="#28192D" stroke-width="0.159018" stroke-linecap="round" stroke-linejoin="round"/>
<path d="M69.7821 57.7341H100.067C101.43 57.7341 102.366 56.251 101.743 55.0759L90.2305 33.3313C90.0889 33.0663 89.8773 32.8453 89.6189 32.6924C89.3605 32.5395 89.0652 32.4605 88.765 32.464H57.4472C56.0843 32.464 56.1808 33.945 56.8039 35.1202L68.3167 56.8668C68.4583 57.1317 68.6698 57.3527 68.9282 57.5056C69.1866 57.6585 69.482 57.7376 69.7821 57.7341V57.7341Z" fill="#28192D"/>
<path d="M97.0271 57.7361H115.109V56.6092L97.0171 55.0376L97.0271 57.7361Z" fill="#28192D"/>
<path d="M104.855 55.6936L101.118 55.3938" stroke="white" stroke-width="0.170945" stroke-linecap="round" stroke-linejoin="round"/>
<path d="M72.1398 33.4902H70.2421" stroke="white" stroke-width="0.170945" stroke-linecap="round" stroke-linejoin="round"/>
<path d="M90.3148 33.4902C85.0559 33.5063 79.6282 33.5063 74.4619 33.4902" stroke="white" stroke-width="0.170945" stroke-linecap="round" stroke-linejoin="round"/>
<path d="M108.242 57.5408C108.902 57.4764 114.806 55.3615 114.806 55.3615L122.346 55.1382C122.209 56.7198 121.444 58.5248 121.072 60.1024L119.733 59.5652C118.297 59.7652 116.883 60.1021 115.511 60.5713C113.099 61.3762 107.999 61.6841 106.19 59.4706C104.38 57.2571 106.314 57.734 108.242 57.5408Z" fill="white" stroke="#28192D" stroke-width="0.159018" stroke-linecap="round" stroke-linejoin="round"/>
<path d="M110.775 57.877C110.775 57.877 107.838 59.7524 105.75 58.7302Z" fill="white"/>
<path d="M110.775 57.877C110.775 57.877 107.838 59.7524 105.75 58.7302" stroke="#28192D" stroke-width="0.159018" stroke-linecap="round" stroke-linejoin="round"/>
<path d="M111.646 58.9434C111.646 58.9434 108.709 60.8188 106.62 59.7966Z" fill="white"/>
<path d="M111.646 58.9434C111.646 58.9434 108.709 60.8188 106.62 59.7966" stroke="#28192D" stroke-width="0.159018" stroke-linecap="round" stroke-linejoin="round"/>
<path d="M118.559 55.2849L115.928 55.3613C115.928 55.3613 111.39 55.0092 110.132 54.5564C108.874 54.1036 109.252 55.2828 110.265 56.0314C111.278 56.78 111.646 56.6089 111.646 56.6089" fill="white"/>
<path d="M118.559 55.2849L115.928 55.3613C115.928 55.3613 111.39 55.0092 110.132 54.5564C108.874 54.1036 109.252 55.2828 110.265 56.0314C111.278 56.78 111.646 56.6089 111.646 56.6089" stroke="#28192D" stroke-width="0.159018" stroke-linecap="round" stroke-linejoin="round"/>
<path d="M112.247 59.9312C112.247 59.9312 110.319 60.9494 108.805 60.9031Z" fill="white"/>
<path d="M112.247 59.9312C112.247 59.9312 110.319 60.9494 108.805 60.9031" stroke="#28192D" stroke-width="0.159018" stroke-linecap="round" stroke-linejoin="round"/>
<path d="M79.0071 48.5279C79.0071 48.5279 80.8405 44.29 79.4353 42.7849C78.0301 41.2797 77.3185 44.2196 77.3185 44.2196C77.3185 44.2196 75.7887 42.4086 74.1323 43.471C72.4758 44.5335 79.0071 48.5279 79.0071 48.5279Z" fill="#FBECF0"/>
<path d="M141.444 55.742C141.444 55.742 140.197 54.7358 137.705 54.7358" stroke="#28192D" stroke-width="0.159018" stroke-linecap="round" stroke-linejoin="round"/>
<path d="M109.336 45.4432C109.336 45.4432 108.65 43.5074 107.501 42.3181" stroke="#28192D" stroke-width="0.159018" stroke-linecap="round" stroke-linejoin="round"/>
<path d="M123.641 49.4493C123.641 49.4493 120.857 49.6807 119.144 48.3828" stroke="#28192D" stroke-width="0.159018" stroke-linecap="round" stroke-linejoin="round"/>
<path d="M76.9145 64.1331L76.512 68.4192" stroke="#28192D" stroke-width="0.198773" stroke-miterlimit="10"/>
<path d="M80.7319 74.2869C80.7319 74.2869 85.9787 81.9778 88.8976 86.9219Z" fill="#F6D4A0"/>
<path d="M80.7319 74.2869C80.7319 74.2869 85.9787 81.9778 88.8976 86.9219" stroke="#28192D" stroke-width="0.198773" stroke-miterlimit="10"/>
<path d="M1.73077 101.42C4.94718 102.024 30.5357 106.854 30.5357 106.854C30.5357 106.854 31.8846 106.652 32.6887 104.439C33.4928 102.225 35.7041 95.9873 35.7041 95.9873C35.7041 95.9873 32.4153 95.3836 31.4826 94.78C30.5498 94.1763 28.2662 92.3652 28.2662 92.3652L27.6289 92.4719C19.0552 93.8805 11.177 94.7981 6.27798 95.3011C3.06157 95.6332 1.12769 95.7861 1.12769 95.7861C1.12769 95.7861 -1.48564 100.817 1.73077 101.42Z" fill="white" stroke="#28192D" stroke-width="0.159018" stroke-linecap="round" stroke-linejoin="round"/>
<path d="M11.9912 102.692C15.5454 103.232 19.1055 103.725 22.6456 104.302C25.8198 104.823 29.0061 105.296 32.2205 105.411C31.4485 106.707 30.5278 106.85 30.5278 106.85C30.5278 106.85 4.93927 102.02 1.72286 101.416C1.29318 101.354 0.897615 101.146 0.601129 100.829C4.40051 101.465 8.18985 102.113 11.9912 102.692Z" fill="#D3F0E7"/>
<path d="M32.3833 105.145L0.136769 99.6091" stroke="#28192D" stroke-width="0.159018" stroke-linecap="round" stroke-linejoin="round"/>
<path d="M6.2719 95.3012C9.34759 96.0678 13.9611 97.0297 18.1947 97.1806C25.3794 97.4382 28.0309 96.257 27.9967 95.3032C27.9766 94.7579 27.7837 93.472 27.6228 92.4719C19.0551 93.8825 11.1769 94.7981 6.2719 95.3012Z" fill="#D3F0E7"/>
<path d="M1.73077 101.42C4.94718 102.024 30.5357 106.854 30.5357 106.854C30.5357 106.854 31.8846 106.652 32.6887 104.439C33.4928 102.225 35.7041 95.9873 35.7041 95.9873C35.7041 95.9873 32.4153 95.3836 31.4826 94.78C30.5498 94.1763 28.2662 92.3652 28.2662 92.3652L27.6289 92.4719C19.0552 93.8805 11.177 94.7981 6.27798 95.3011C3.06157 95.6332 1.12769 95.7861 1.12769 95.7861C1.12769 95.7861 -1.48564 100.817 1.73077 101.42Z" stroke="#28192D" stroke-width="0.159018" stroke-linecap="round" stroke-linejoin="round"/>
<path d="M14.7955 93.5664L20.1669 97.2167" stroke="#28192D" stroke-width="0.159018" stroke-linecap="round" stroke-linejoin="round"/>
<path d="M18.1949 92.999L23.5663 96.6493" stroke="#28192D" stroke-width="0.159018" stroke-linecap="round" stroke-linejoin="round"/>
<path d="M20.8806 92.1094L26.252 95.7596" stroke="#28192D" stroke-width="0.159018" stroke-linecap="round" stroke-linejoin="round"/>
<path d="M29.7931 106.714L30.6725 104.851" stroke="#28192D" stroke-width="0.159018" stroke-linecap="round" stroke-linejoin="round"/>
<path d="M27.9356 106.358L28.815 104.495" stroke="#28192D" stroke-width="0.159018" stroke-linecap="round" stroke-linejoin="round"/>
<path d="M26.0781 106.003L26.9575 104.139" stroke="#28192D" stroke-width="0.159018" stroke-linecap="round" stroke-linejoin="round"/>
<path d="M24.2235 105.644L25.102 103.783C25.102 103.783 27.0057 98.5289 34.5502 99.2151" stroke="#28192D" stroke-width="0.159018" stroke-linecap="round" stroke-linejoin="round"/>
<path d="M34.4357 99.1524C34.4357 99.1524 26.1152 96.5707 23.2446 103.424L22.3661 105.288" stroke="#28192D" stroke-width="0.159018" stroke-linecap="round" stroke-linejoin="round"/>
<path d="M20.5077 104.934L21.387 103.071" stroke="#28192D" stroke-width="0.159018" stroke-linecap="round" stroke-linejoin="round"/>
<path d="M18.6504 104.577L19.5298 102.714" stroke="#28192D" stroke-width="0.159018" stroke-linecap="round" stroke-linejoin="round"/>
<path d="M16.7948 104.221L17.6721 102.358" stroke="#28192D" stroke-width="0.159018" stroke-linecap="round" stroke-linejoin="round"/>
<path d="M14.9374 103.865L15.8167 102.004" stroke="#28192D" stroke-width="0.159018" stroke-linecap="round" stroke-linejoin="round"/>
<path d="M13.0799 103.511L13.9592 101.647" stroke="#28192D" stroke-width="0.159018" stroke-linecap="round" stroke-linejoin="round"/>
<path d="M11.2223 103.155L12.1017 101.292" stroke="#28192D" stroke-width="0.159018" stroke-linecap="round" stroke-linejoin="round"/>
<path d="M9.36484 102.799L10.2442 100.936" stroke="#28192D" stroke-width="0.159018" stroke-linecap="round" stroke-linejoin="round"/>
<path d="M7.50943 102.442L8.38678 100.579" stroke="#28192D" stroke-width="0.159018" stroke-linecap="round" stroke-linejoin="round"/>
<path d="M5.65201 102.086L6.53137 100.223" stroke="#28192D" stroke-width="0.159018" stroke-linecap="round" stroke-linejoin="round"/>
<path d="M3.79459 101.73L4.67395 99.8669" stroke="#28192D" stroke-width="0.159018" stroke-linecap="round" stroke-linejoin="round"/>
<path d="M1.93698 101.374L2.81635 99.5107" stroke="#28192D" stroke-width="0.159018" stroke-linecap="round" stroke-linejoin="round"/>
<path d="M0.40561 100.469L0.958984 99.1567" stroke="#28192D" stroke-width="0.159018" stroke-linecap="round" stroke-linejoin="round"/>
<path d="M86.9637 148.64C97.2642 147.177 103.701 143.799 113.097 136.935C114.289 135.325 113.891 135.301 113.2 133.417C112.508 131.534 110.586 127.68 109.655 125.429C108.399 126.095 107.167 127.065 105.792 127.429C104.417 127.793 103.096 127.843 101.699 128.065C101.675 128.175 101.345 128.467 101.251 128.604C97.4311 134.389 94.3111 139.384 88.2583 141.776C84.282 143.348 86.4591 142.493 82.8306 143.94C82.8868 143.692 76.6631 150.105 86.9637 148.64Z" fill="white" stroke="#28192D" stroke-width="0.159018" stroke-linecap="round" stroke-linejoin="round"/>
<path d="M96.6613 146.55C100.712 145.324 103.084 143.732 106.051 140.867C108.707 138.307 111.077 136.943 113.69 134.629C113.769 135.388 113.958 136.166 113.423 136.842C101.926 144.258 99.7531 146.572 85.8481 148.916C83.6369 149.288 85.9607 148.781 84.2842 148.817C88.7168 147.934 92.3312 147.86 96.6613 146.55Z" fill="#D3F0E7"/>
<path d="M113.604 134.343C100.959 142.628 99.0151 144.886 83.5482 147.795Z" fill="white"/>
<path d="M113.604 134.343C100.959 142.628 99.0151 144.886 83.5482 147.795" stroke="#28192D" stroke-width="0.159018" stroke-linecap="round" stroke-linejoin="round"/>
<path d="M87.8885 141.909C90.7973 142.493 96.6371 140.06 98.0503 138.86C100.449 136.826 103.9 132.381 103.478 130.409C103.233 129.278 101.801 129.435 101.327 128.574C96.8904 134.613 95.1254 139.066 87.8885 141.909Z" fill="#D3F0E7"/>
<path d="M86.9637 148.64C97.2642 147.177 103.701 143.799 113.097 136.935C114.289 135.325 113.891 135.301 113.2 133.417C112.508 131.534 110.586 127.68 109.655 125.429C108.399 126.095 107.167 127.065 105.792 127.429C104.417 127.793 103.096 127.843 101.699 128.065C101.675 128.175 101.345 128.467 101.251 128.604C97.4311 134.389 94.3111 139.384 88.2583 141.776C84.282 143.348 86.4591 142.493 82.8306 143.94C82.9894 143.744 76.6631 150.105 86.9637 148.64Z" stroke="#28192D" stroke-width="0.159018" stroke-linecap="round" stroke-linejoin="round"/>
<path d="M93.7985 137.555C95.7589 137.698 97.7291 137.622 99.6725 137.327" stroke="#28192D" stroke-width="0.159018" stroke-linecap="round" stroke-linejoin="round"/>
<path d="M95.6137 135.317C97.5379 135.186 99.4488 134.904 101.329 134.474" stroke="#28192D" stroke-width="0.159018" stroke-linecap="round" stroke-linejoin="round"/>
<path d="M96.5486 132.987C98.5709 132.717 100.569 132.315 102.561 131.896" stroke="#28192D" stroke-width="0.159018" stroke-linecap="round" stroke-linejoin="round"/>
<path d="M112.816 137.232C112.594 136.589 112.369 135.947 112.145 135.303Z" fill="white"/>
<path d="M112.816 137.232C112.594 136.589 112.369 135.947 112.145 135.303" stroke="#28192D" stroke-width="0.159018" stroke-linecap="round" stroke-linejoin="round"/>
<path d="M111.207 138.259C110.982 137.615 110.758 136.97 110.535 136.325Z" fill="white"/>
<path d="M111.207 138.259C110.982 137.615 110.758 136.97 110.535 136.325" stroke="#28192D" stroke-width="0.159018" stroke-linecap="round" stroke-linejoin="round"/>
<path d="M109.613 139.335C109.382 138.679 109.144 138.023 108.907 137.367Z" fill="white"/>
<path d="M109.613 139.335C109.382 138.679 109.144 138.023 108.907 137.367" stroke="#28192D" stroke-width="0.159018" stroke-linecap="round" stroke-linejoin="round"/>
<path d="M108.134 140.619C107.44 138.913 108.134 140.392 107.163 138.092C106.192 135.792 107.983 130.204 111.073 128.592" stroke="#28192D" stroke-width="0.159018" stroke-linecap="round" stroke-linejoin="round"/>
<path d="M110.894 128.508C106.425 130.852 104.035 134.721 105.844 139.647C106.119 140.336 106.365 141.032 106.61 141.73" stroke="#28192D" stroke-width="0.159018" stroke-linecap="round" stroke-linejoin="round"/>
<path d="M105.199 143.02C104.973 142.312 104.748 141.611 104.492 140.905Z" fill="white"/>
<path d="M105.199 143.02C104.973 142.312 104.748 141.611 104.492 140.905" stroke="#28192D" stroke-width="0.159018" stroke-linecap="round" stroke-linejoin="round"/>
<path d="M103.739 144.228C103.562 143.515 103.367 142.819 103.136 142.111Z" fill="white"/>
<path d="M103.739 144.228C103.562 143.515 103.367 142.819 103.136 142.111" stroke="#28192D" stroke-width="0.159018" stroke-linecap="round" stroke-linejoin="round"/>
<path d="M102.137 145.268C102.028 144.565 101.872 143.87 101.672 143.187Z" fill="white"/>
<path d="M102.137 145.268C102.028 144.565 101.872 143.87 101.672 143.187" stroke="#28192D" stroke-width="0.159018" stroke-linecap="round" stroke-linejoin="round"/>
<path d="M100.189 146.048C100.101 145.376 99.9881 144.706 99.8955 144.036Z" fill="white"/>
<path d="M100.189 146.048C100.101 145.376 99.9881 144.706 99.8955 144.036" stroke="#28192D" stroke-width="0.159018" stroke-linecap="round" stroke-linejoin="round"/>
<path d="M98.1407 146.739C98.0864 146.064 98.0018 145.392 97.9133 144.726Z" fill="white"/>
<path d="M98.1407 146.739C98.0864 146.064 98.0018 145.392 97.9133 144.726" stroke="#28192D" stroke-width="0.159018" stroke-linecap="round" stroke-linejoin="round"/>
<path d="M96.0623 147.344C96.0441 146.674 95.9958 145.998 95.9315 145.332Z" fill="white"/>
<path d="M96.0623 147.344C96.0441 146.674 95.9958 145.998 95.9315 145.332" stroke="#28192D" stroke-width="0.159018" stroke-linecap="round" stroke-linejoin="round"/>
<path d="M93.9614 147.825C93.9614 147.159 93.9453 146.493 93.9272 145.827Z" fill="white"/>
<path d="M93.9614 147.825C93.9614 147.159 93.9453 146.493 93.9272 145.827" stroke="#28192D" stroke-width="0.159018" stroke-linecap="round" stroke-linejoin="round"/>
<path d="M91.8546 148.171C91.8908 147.509 91.9069 146.845 91.9291 146.181Z" fill="white"/>
<path d="M91.8546 148.171C91.8908 147.509 91.9069 146.845 91.9291 146.181" stroke="#28192D" stroke-width="0.159018" stroke-linecap="round" stroke-linejoin="round"/>
<path d="M89.7878 148.403C89.8603 147.741 89.8945 147.075 89.9327 146.411Z" fill="white"/>
<path d="M89.7878 148.403C89.8603 147.741 89.8945 147.075 89.9327 146.411" stroke="#28192D" stroke-width="0.159018" stroke-linecap="round" stroke-linejoin="round"/>
<path d="M87.7515 148.576C87.8199 147.898 87.9085 147.222 87.9769 146.544Z" fill="white"/>
<path d="M87.7515 148.576C87.8199 147.898 87.9085 147.222 87.9769 146.544" stroke="#28192D" stroke-width="0.159018" stroke-linecap="round" stroke-linejoin="round"/>
<path d="M85.8197 148.834C85.9082 148.141 85.9786 147.447 86.0531 146.755Z" fill="white"/>
<path d="M85.8197 148.834C85.9082 148.141 85.9786 147.447 86.0531 146.755" stroke="#28192D" stroke-width="0.159018" stroke-linecap="round" stroke-linejoin="round"/>
<path d="M84.0689 148.516C84.1052 148.035 84.1353 147.552 84.1696 147.071Z" fill="white"/>
<path d="M84.0689 148.516C84.1052 148.035 84.1353 147.552 84.1696 147.071" stroke="#28192D" stroke-width="0.159018" stroke-linecap="round" stroke-linejoin="round"/>
<path d="M136.814 36.8101C136.814 36.8101 138.32 35.9891 139.242 36.3312Z" fill="white"/>
<path d="M136.814 36.8101C136.814 36.8101 138.32 35.9891 139.242 36.3312" stroke="#28192D" stroke-width="0.159018" stroke-linecap="round" stroke-linejoin="round"/>
<path d="M124.133 65.2258C124.133 65.2258 119.711 66.1193 120.662 71.8442Z" fill="#F6D4A0"/>
<path d="M124.133 65.2258C124.133 65.2258 119.711 66.1193 120.662 71.8442" stroke="#28192D" stroke-width="0.198773" stroke-miterlimit="10"/>
<path d="M133.393 84.2153C132.991 83.8142 132.674 83.3367 132.46 82.8111C132.246 82.2854 132.14 81.7222 132.146 81.1546L132.16 79.8306L124.429 80.5751C123.923 80.6146 123.436 80.7905 123.022 81.0842C122.38 81.5531 121.727 82.4646 121.886 84.2153" fill="#F6D4A0"/>
<path d="M133.393 84.2153C132.991 83.8142 132.674 83.3367 132.46 82.8111C132.246 82.2854 132.14 81.7222 132.146 81.1546L132.16 79.8306L124.429 80.5751C123.923 80.6146 123.436 80.7905 123.022 81.0842C122.38 81.5531 121.727 82.4646 121.886 84.2153" stroke="#28192D" stroke-width="0.198773" stroke-miterlimit="10"/>
<path d="M131.03 80.825C131.03 80.825 131.181 83.0022 131.996 84.3162Z" fill="#F6D4A0"/>
<path d="M131.03 80.825C131.03 80.825 131.181 83.0022 131.996 84.3162" stroke="#28192D" stroke-width="0.198773" stroke-miterlimit="10"/>
<path d="M134.599 19.1185C134.599 19.1185 134.599 15.3615 140.941 17.0056C147.284 18.6496 147.41 24.5536 142.549 27.2681C137.689 29.9827 134.798 25.0225 134.508 22.8412C134.219 20.6599 134.398 19.9354 134.398 19.9354L134.599 19.1185Z" fill="#28192D"/>
<path d="M134.906 16.5083C134.906 16.5083 135.471 16.4439 135.974 17.1019C136.476 17.76 135.696 19.7179 135.29 19.901C134.884 20.0841 132.586 18.7761 132.586 18.7761L134.906 16.5083Z" fill="white" stroke="#28192D" stroke-width="0.159018" stroke-linecap="round" stroke-linejoin="round"/>
<path d="M124.915 25.3022C124.915 25.3022 127.211 26.6182 130.063 25.2921C132.916 23.9661 136.265 18.1445 135.127 14.4078C133.989 10.671 125.562 7.49561 123.56 9.77954C121.558 12.0635 124.915 25.3022 124.915 25.3022Z" fill="#28192D"/>
<path d="M122.941 30.0833C122.941 30.0632 122.925 30.0451 122.919 30.0249L121.311 23.0323L126.053 19.7986L129.4 29.055C128.963 29.316 128.571 29.6478 128.242 30.037C126.835 32.0593 125.265 32.8723 123.757 34.794C123.599 34.6849 123.472 34.5356 123.389 34.3614C123.569 32.9198 123.415 31.4563 122.941 30.0833V30.0833Z" fill="white" stroke="#28192D" stroke-width="0.170945" stroke-linecap="round" stroke-linejoin="round"/>
<path d="M126.053 19.7986L126.544 21.1206C126.142 24.1773 124.847 26.8315 122.222 26.9965L121.311 23.0323L126.053 19.7986Z" fill="#28192D"/>
<path d="M129.223 11.7154C127.509 9.48381 124.363 9.00287 121.946 10.4416C120.453 11.3311 118.756 12.8423 117.359 15.416C114.046 21.5192 119.898 27.7291 125.35 22.8151C129.525 19.0522 131.636 14.8525 129.223 11.7154Z" fill="white" stroke="#28192D" stroke-width="0.159018" stroke-linecap="round" stroke-linejoin="round"/>
<path d="M125.85 22.1851L125.924 22.2051Z" fill="white"/>
<path d="M125.85 22.1851L125.924 22.2051" stroke="#28192D" stroke-width="0.159018" stroke-linecap="round" stroke-linejoin="round"/>
<path d="M125.924 22.2053C126.345 22.3079 128.49 22.7446 129.617 21.3299C130.87 19.7543 128.89 18.6918 127.854 19.6678" fill="white"/>
<path d="M125.924 22.2053C126.345 22.3079 128.49 22.7446 129.617 21.3299C130.87 19.7543 128.89 18.6918 127.854 19.6678" stroke="#28192D" stroke-width="0.159018" stroke-linecap="round" stroke-linejoin="round"/>
<path d="M128.924 20.2717C128.924 20.2717 129.302 21.0887 128.079 21.6562Z" fill="white"/>
<path d="M128.924 20.2717C128.924 20.2717 129.302 21.0887 128.079 21.6562" stroke="#28192D" stroke-width="0.159018" stroke-linecap="round" stroke-linejoin="round"/>
<path d="M129.523 19.0036L127.36 20.1063C127.36 20.1063 128.859 16.9309 129.169 15.8926L129.481 14.8543C128.24 13.8049 127.102 12.6392 126.083 11.373C124.258 9.14546 123.156 9.78335 123.156 9.78335C123.156 9.78335 124.29 9.42919 124.98 9.20784C125.669 8.98649 128.719 10.6446 128.719 10.6446L130.984 12.9648L131.302 14.5041L129.647 18.8446" fill="#28192D"/>
<path d="M122.867 17.2148C122.867 17.2148 124.135 16.9009 125.092 18.4946Z" fill="white"/>
<path d="M122.867 17.215C123.633 17.384 124.218 17.7945 124.809 18.2815C124.899 18.3586 124.993 18.4299 125.092 18.4948C125.055 18.2526 124.964 18.0217 124.827 17.8186C124.425 17.215 123.532 16.8024 122.867 17.215V17.215Z" fill="#28192D"/>
<path d="M120.79 16.8506C120.708 17.0075 120.286 17.895 120.221 17.9553C119.63 18.5208 119.26 18.3578 119.471 18.8991C119.61 19.2593 120.211 19.3699 120.69 19.3538" fill="white"/>
<path d="M120.79 16.8506C120.708 17.0075 120.286 17.895 120.221 17.9553C119.63 18.5208 119.26 18.3578 119.471 18.8991C119.61 19.2593 120.211 19.3699 120.69 19.3538" stroke="#28192D" stroke-width="0.159018" stroke-linecap="round" stroke-linejoin="round"/>
<path d="M120.619 16.2247C120.447 15.8847 120.17 15.6098 119.828 15.4411C119.487 15.2724 119.1 15.219 118.726 15.2889" fill="white"/>
<path d="M120.619 16.2248C120.605 15.5729 119.948 15.0457 119.313 15.0859C119.101 15.0916 118.896 15.1618 118.726 15.2871C118.927 15.3596 119.104 15.3978 119.267 15.4602C119.753 15.6449 120.209 15.902 120.619 16.2228V16.2248Z" fill="#28192D"/>
<path d="M119.61 20.4585C119.61 20.4585 121.056 20.5812 121.856 20.6275C122.292 20.6472 122.73 20.6127 123.158 20.5249C122.831 21.0659 122.363 21.5081 121.805 21.8047C121.526 21.9538 121.217 22.0392 120.901 22.0548C120.585 22.0705 120.269 22.016 119.976 21.8953V21.8953C120.044 21.4371 119.942 20.9698 119.691 20.5812L119.61 20.4585Z" fill="white" stroke="#28192D" stroke-width="0.159018" stroke-linecap="round" stroke-linejoin="round"/>
<path d="M122.674 20.845L119.948 21.1871" stroke="#28192D" stroke-width="0.159018" stroke-linecap="round" stroke-linejoin="round"/>
<path d="M127.394 9.26654C127.394 9.26654 123.723 7.85795 120.619 9.50198C117.516 11.146 118.147 14.0497 118.147 14.0497L120.31 14.9391C120.31 14.9391 121.216 12.8303 122.69 11.9469L124.163 11.0635C124.163 11.0635 122.411 13.277 122.099 14.3053C121.907 14.8614 121.875 15.4606 122.008 16.0338C122.665 16.1231 123.308 16.2906 123.924 16.5328C124.678 16.8769 128.731 18.5652 128.731 18.5652C128.731 18.5652 130.078 16.553 130.741 14.758C131.404 12.9631 127.394 9.26654 127.394 9.26654Z" fill="#28192D"/>
<path d="M134.508 20.4265C134.508 20.4265 133.101 24.6523 136.719 27.4695C140.338 30.2866 145.595 26.4633 145.53 24.1995C145.466 21.9357 142.851 27.7713 139.835 28.1738C136.82 28.5762 135.413 24.9541 135.413 24.9541" stroke="#28192D" stroke-width="0.198773" stroke-miterlimit="10"/>
<path d="M214.525 148.862H35.2376" stroke="#28192D" stroke-width="0.159018" stroke-linecap="round" stroke-linejoin="round"/>
</g>
<defs>
<clipPath id="clip0_67_12676">
<rect width="196" height="164" fill="white" transform="matrix(-1 0 0 1 196 0)"/>
</clipPath>
</defs>
</svg>
