<svg width="48" height="48" viewBox="0 0 48 48" fill="none" xmlns="http://www.w3.org/2000/svg">
        <rect x="2" width="44" height="44" rx="22" fill="#28192D"/>
        <path d="M24 29.5C28.1421 29.5 31.5 26.1421 31.5 22C31.5 17.8579 28.1421 14.5 24 14.5C19.8579 14.5 16.5 17.8579 16.5 22C16.5 26.1421 19.8579 29.5 24 29.5Z" stroke="white" stroke-linecap="round" stroke-linejoin="round"/>
        <path d="M24 23.875V23.25C24.4945 23.25 24.9778 23.1034 25.3889 22.8287C25.8 22.554 26.1205 22.1635 26.3097 21.7067C26.4989 21.2499 26.5484 20.7472 26.452 20.2623C26.3555 19.7773 26.1174 19.3319 25.7678 18.9822C25.4181 18.6326 24.9727 18.3945 24.4877 18.298C24.0028 18.2016 23.5001 18.2511 23.0433 18.4403C22.5865 18.6295 22.196 18.95 21.9213 19.3611C21.6466 19.7722 21.5 20.2555 21.5 20.75" stroke="white" stroke-linecap="round" stroke-linejoin="round"/>
        <path d="M24 26.375C24.3452 26.375 24.625 26.0952 24.625 25.75C24.625 25.4048 24.3452 25.125 24 25.125C23.6548 25.125 23.375 25.4048 23.375 25.75C23.375 26.0952 23.6548 26.375 24 26.375Z" fill="white"/>
</svg>
