<svg width="609" height="582" viewBox="0 0 609 582" fill="none" xmlns="http://www.w3.org/2000/svg">
<g opacity="0.1">
<path d="M11.6715 331.081C-3.04674 316.363 -3.04674 292.5 11.6715 277.782L278.168 11.2848C292.887 -3.43346 316.749 -3.43346 331.468 11.2848L423.53 103.347C438.248 118.065 438.248 141.928 423.53 156.647L157.033 423.144C142.315 437.862 118.452 437.862 103.734 423.144L11.6715 331.081Z" fill="#F9A619"/>
<path d="M360.537 331.081C345.818 316.363 345.818 292.5 360.537 277.782L452.599 185.719C467.317 171.001 491.18 171.001 505.899 185.719L597.961 277.782C612.679 292.5 612.679 316.363 597.961 331.081L505.899 423.144C491.18 437.862 467.317 437.862 452.599 423.144L360.537 331.081Z" fill="#3B85DB"/>
<path d="M232.136 551.545C191.995 511.404 191.995 446.323 232.136 406.183C272.276 366.042 337.357 366.042 377.498 406.183C417.638 446.323 417.638 511.404 377.498 551.545C337.357 591.685 272.276 591.685 232.136 551.545Z" fill="#EB3669"/>
</g>
</svg>
