<svg width="16" height="16" viewBox="0 0 16 16" fill="none" xmlns="http://www.w3.org/2000/svg">
<path d="M8 6.5V8H3.5C3.10217 8 2.72064 7.84196 2.43934 7.56066C2.15803 7.27936 2 6.89782 2 6.5C2 6.10218 2.15803 5.72064 2.43934 5.43934C2.72064 5.15804 3.10217 5 3.5 5H6.5C6.89782 5 7.27936 5.15804 7.56066 5.43934C7.84196 5.72064 8 6.10218 8 6.5H8Z" stroke="#AEAEB5" stroke-linecap="round" stroke-linejoin="round"/>
<path d="M8 5H6.5C6.10218 5 5.72064 4.84196 5.43934 4.56066C5.15804 4.27936 5 3.89782 5 3.5C5 3.10218 5.15804 2.72064 5.43934 2.43934C5.72064 2.15804 6.10218 2 6.5 2V2C6.89782 2 7.27936 2.15804 7.56066 2.43934C7.84196 2.72064 8 3.10218 8 3.5V5Z" stroke="#AEAEB5" stroke-linecap="round" stroke-linejoin="round"/>
<path d="M9.5 8H8V3.5C8 3.10217 8.15804 2.72064 8.43934 2.43934C8.72064 2.15803 9.10218 2 9.5 2C9.89782 2 10.2794 2.15803 10.5607 2.43934C10.842 2.72064 11 3.10217 11 3.5V6.5C11 6.89782 10.842 7.27936 10.5607 7.56066C10.2794 7.84196 9.89782 8 9.5 8V8Z" stroke="#AEAEB5" stroke-linecap="round" stroke-linejoin="round"/>
<path d="M11 8V6.5C11 6.10218 11.158 5.72064 11.4393 5.43934C11.7206 5.15804 12.1022 5 12.5 5V5C12.8978 5 13.2794 5.15804 13.5607 5.43934C13.842 5.72064 14 6.10218 14 6.5V6.5C14 6.89782 13.842 7.27936 13.5607 7.56066C13.2794 7.84196 12.8978 8 12.5 8H11Z" stroke="#AEAEB5" stroke-linecap="round" stroke-linejoin="round"/>
<path d="M8 9.5V8H12.5C12.8978 8 13.2794 8.15804 13.5607 8.43934C13.842 8.72064 14 9.10218 14 9.5V9.5C14 9.89782 13.842 10.2794 13.5607 10.5607C13.2794 10.842 12.8978 11 12.5 11H9.5C9.10218 11 8.72064 10.842 8.43934 10.5607C8.15804 10.2794 8 9.89782 8 9.5H8Z" stroke="#AEAEB5" stroke-linecap="round" stroke-linejoin="round"/>
<path d="M8 11H9.5C9.89782 11 10.2794 11.158 10.5607 11.4393C10.842 11.7206 11 12.1022 11 12.5V12.5C11 12.8978 10.842 13.2794 10.5607 13.5607C10.2794 13.842 9.89782 14 9.5 14V14C9.10218 14 8.72064 13.842 8.43934 13.5607C8.15804 13.2794 8 12.8978 8 12.5V11Z" stroke="#AEAEB5" stroke-linecap="round" stroke-linejoin="round"/>
<path d="M6.5 8H8V12.5C8 12.8978 7.84196 13.2794 7.56066 13.5607C7.27936 13.842 6.89782 14 6.5 14V14C6.10218 14 5.72064 13.842 5.43934 13.5607C5.15804 13.2794 5 12.8978 5 12.5V9.5C5 9.10218 5.15804 8.72064 5.43934 8.43934C5.72064 8.15804 6.10218 8 6.5 8V8Z" stroke="#AEAEB5" stroke-linecap="round" stroke-linejoin="round"/>
<path d="M5 8V9.5C5 9.89782 4.84196 10.2794 4.56066 10.5607C4.27936 10.842 3.89782 11 3.5 11C3.10218 11 2.72064 10.842 2.43934 10.5607C2.15804 10.2794 2 9.89782 2 9.5V9.5C2 9.10218 2.15804 8.72064 2.43934 8.43934C2.72064 8.15804 3.10218 8 3.5 8H5Z" stroke="#AEAEB5" stroke-linecap="round" stroke-linejoin="round"/>
</svg>
