<svg width="266" height="164" viewBox="0 0 266 164" fill="none" xmlns="http://www.w3.org/2000/svg">
<rect width="266" height="164" fill="#EDF3FB"/>
<g filter="url(#filter0_d)">
<path d="M50 24.4739C50 22.003 52.0019 20 54.4714 20H211.529C213.998 20 216 22.003 216 24.4739V138.557C216 141.028 213.998 143.031 211.529 143.031H54.4714C52.0019 143.031 50 141.028 50 138.557V24.4739Z" fill="white"/>
</g>
<path d="M76.0747 41.8518C76.0747 45.4013 73.1972 48.2788 69.6477 48.2788C66.0982 48.2788 63.2207 45.4013 63.2207 41.8518C63.2207 38.3023 66.0982 35.4248 69.6477 35.4248C73.1972 35.4248 76.0747 38.3023 76.0747 41.8518Z" fill="#C9DAF2"/>
<path d="M151.363 66.6676C151.363 65.4362 152.365 64.438 153.601 64.438H203.112C204.348 64.438 205.35 65.4362 205.35 66.6676V101.505C205.35 102.736 204.348 103.734 203.112 103.734H153.601C152.365 103.734 151.363 102.736 151.363 101.505V66.6676Z" fill="#C9DAF2"/>
<path d="M63.5898 128.318C63.5898 127.114 64.5943 126.137 65.8334 126.137H92.1958C93.4349 126.137 94.4394 127.114 94.4394 128.318V143.031H63.5898V128.318Z" fill="#C9DAF2"/>
<path d="M174.867 128.318C174.867 127.114 175.86 126.137 177.084 126.137H203.133C204.357 126.137 205.349 127.114 205.349 128.318V143.031H174.867V128.318Z" fill="#C9DAF2"/>
<path d="M100.682 128.318C100.682 127.114 101.686 126.137 102.925 126.137H129.288C130.527 126.137 131.531 127.114 131.531 128.318V143.031H100.682V128.318Z" fill="#C9DAF2"/>
<path d="M137.775 128.318C137.775 127.114 138.78 126.137 140.019 126.137H166.381C167.62 126.137 168.625 127.114 168.625 128.318V143.031H137.775V128.318Z" fill="#C9DAF2"/>
<path d="M182.58 40.553C182.58 39.3434 183.59 38.3628 184.836 38.3628H203.094C204.34 38.3628 205.35 39.3434 205.35 40.553V43.885C205.35 45.0946 204.34 46.0752 203.094 46.0752H184.836C183.59 46.0752 182.58 45.0946 182.58 43.885V40.553Z" fill="#C9DAF2"/>
<path fill-rule="evenodd" clip-rule="evenodd" d="M160.178 41.8518C160.178 41.1419 160.8 40.5664 161.568 40.5664H172.009C172.777 40.5664 173.399 41.1419 173.399 41.8518C173.399 42.5617 172.777 43.1372 172.009 43.1372H161.568C160.8 43.1372 160.178 42.5617 160.178 41.8518Z" fill="#C9DAF2"/>
<path fill-rule="evenodd" clip-rule="evenodd" d="M138.875 41.8518C138.875 41.1419 139.515 40.5664 140.304 40.5664H151.035C151.824 40.5664 152.463 41.1419 152.463 41.8518C152.463 42.5617 151.824 43.1372 151.035 43.1372H140.304C139.515 43.1372 138.875 42.5617 138.875 41.8518Z" fill="#C9DAF2"/>
<path fill-rule="evenodd" clip-rule="evenodd" d="M117.941 41.8528C117.941 41.1429 118.564 40.5674 119.331 40.5674H129.773C130.54 40.5674 131.163 41.1429 131.163 41.8528C131.163 42.5627 130.54 43.1382 129.773 43.1382H119.331C118.564 43.1382 117.941 42.5627 117.941 41.8528Z" fill="#C9DAF2"/>
<path fill-rule="evenodd" clip-rule="evenodd" d="M63.2207 74.0664C63.2207 73.238 63.8454 72.5664 64.616 72.5664H101.825C102.596 72.5664 103.221 73.238 103.221 74.0664C103.221 74.8948 102.596 75.5664 101.825 75.5664H64.616C63.8454 75.5664 63.2207 74.8948 63.2207 74.0664Z" fill="#C9DAF2"/>
<path fill-rule="evenodd" clip-rule="evenodd" d="M63.2207 81.0664C63.2207 80.238 63.8448 79.5664 64.6147 79.5664H135.827C136.597 79.5664 137.221 80.238 137.221 81.0664C137.221 81.8948 136.597 82.5664 135.827 82.5664H64.6147C63.8448 82.5664 63.2207 81.8948 63.2207 81.0664Z" fill="#C9DAF2"/>
<path fill-rule="evenodd" clip-rule="evenodd" d="M63.2207 87.0664C63.2207 86.238 63.843 85.5664 64.6107 85.5664H128.831C129.598 85.5664 130.221 86.238 130.221 87.0664C130.221 87.8948 129.598 88.5664 128.831 88.5664H64.6107C63.843 88.5664 63.2207 87.8948 63.2207 87.0664Z" fill="#C9DAF2"/>
<path fill-rule="evenodd" clip-rule="evenodd" d="M63.2207 94.0664C63.2207 93.238 63.8548 92.5664 64.6369 92.5664H110.805C111.587 92.5664 112.221 93.238 112.221 94.0664C112.221 94.8948 111.587 95.5664 110.805 95.5664H64.6369C63.8548 95.5664 63.2207 94.8948 63.2207 94.0664Z" fill="#C9DAF2"/>
<path d="M174.371 77.7079C174.698 77.1533 175.521 77.1533 175.848 77.7079L184.048 91.615H167.64C166.986 91.615 166.576 90.9284 166.901 90.3771L174.371 77.7079Z" fill="white"/>
<path d="M183.26 82.4746C183.585 81.9303 184.395 81.9303 184.72 82.4746L189.442 90.387C189.768 90.9324 189.362 91.6151 188.712 91.6151H177.805L183.26 82.4746Z" fill="white"/>
<defs>
<filter id="filter0_d" x="34" y="7" width="198" height="155.031" filterUnits="userSpaceOnUse" color-interpolation-filters="sRGB">
<feFlood flood-opacity="0" result="BackgroundImageFix"/>
<feColorMatrix in="SourceAlpha" type="matrix" values="0 0 0 0 0 0 0 0 0 0 0 0 0 0 0 0 0 0 127 0"/>
<feOffset dy="3"/>
<feGaussianBlur stdDeviation="8"/>
<feColorMatrix type="matrix" values="0 0 0 0 0.156863 0 0 0 0 0.0980392 0 0 0 0 0.176471 0 0 0 0.08 0"/>
<feBlend mode="normal" in2="BackgroundImageFix" result="effect1_dropShadow"/>
<feBlend mode="normal" in="SourceGraphic" in2="effect1_dropShadow" result="shape"/>
</filter>
</defs>
</svg>
