<svg width="16" height="16" viewBox="0 0 16 16" fill="none" xmlns="http://www.w3.org/2000/svg">
<path d="M14.9998 3.79134C14.4554 4.57062 13.7763 5.24643 12.9944 5.78694L12.9944 5.78693C12.9449 7.15386 12.5459 8.4853 11.8354 9.65413C11.125 10.823 10.1268 11.7902 8.93613 12.4635C7.74549 13.1368 6.40214 13.4936 5.03433 13.5C3.66652 13.5063 2.31991 13.162 1.12305 12.4999L1.12345 12.4991C2.68636 12.4775 4.2083 11.9962 5.49951 11.1153L5.49946 11.1154C4.11728 10.1733 3.06456 8.82236 2.4889 7.25185C1.91324 5.68134 1.8435 3.97005 2.28946 2.35791L2.28944 2.35793C2.92817 3.34159 3.77539 4.17276 4.77109 4.79255C5.76679 5.41234 6.88661 5.8056 8.0512 5.94445L8.05103 5.94449C7.92839 5.35987 8.01908 4.75066 8.30669 4.22712C8.59431 3.70357 9.05984 3.30028 9.61904 3.09023C10.1782 2.88018 10.7942 2.87726 11.3553 3.08198C11.9165 3.28671 12.3858 3.68556 12.6784 4.20634L12.6784 4.20662C13.4684 4.18305 14.2506 4.04311 14.9998 3.79134" stroke="#AEAEB5" stroke-linecap="round" stroke-linejoin="round"/>
</svg>
