<svg width="16" height="16" viewBox="0 0 16 16" fill="none" xmlns="http://www.w3.org/2000/svg">
<path d="M5.5 10C7.29493 10 8.75 8.54493 8.75 6.75C8.75 4.95507 7.29493 3.5 5.5 3.5C3.70507 3.5 2.25 4.95507 2.25 6.75C2.25 8.54493 3.70507 10 5.5 10Z" stroke="#AEAEB5" stroke-miterlimit="10"/>
<path d="M9.71289 3.62083C10.1599 3.49488 10.6287 3.46619 11.0878 3.53669C11.5468 3.60718 11.9854 3.77523 12.374 4.02951C12.7626 4.28378 13.0922 4.61839 13.3407 5.01078C13.5891 5.40317 13.7505 5.84424 13.8141 6.30428C13.8777 6.76433 13.842 7.23265 13.7093 7.67773C13.5767 8.1228 13.3502 8.53428 13.0452 8.88445C12.7401 9.23463 12.3636 9.51536 11.9409 9.70775C11.5182 9.90014 11.0592 9.99971 10.5947 9.99977" stroke="#AEAEB5" stroke-linecap="round" stroke-linejoin="round"/>
<path d="M1 12.3373C1.50758 11.6153 2.18143 11.026 2.96466 10.6192C3.74788 10.2124 4.61748 10 5.50005 10C6.38262 9.99997 7.25224 10.2123 8.0355 10.619C8.81875 11.0258 9.49265 11.615 10.0003 12.337" stroke="#AEAEB5" stroke-linecap="round" stroke-linejoin="round"/>
<path d="M10.5957 10C11.4784 9.99936 12.3482 10.2114 13.1315 10.6182C13.9148 11.025 14.5886 11.6146 15.0957 12.337" stroke="#AEAEB5" stroke-linecap="round" stroke-linejoin="round"/>
</svg>
